<svg  fill="#febe40"  version="1.1" id="Layer_1" xmlns="http://www.w3.org/2000/svg" xmlns:xlink="http://www.w3.org/1999/xlink" x="0px" y="0px" viewBox="0 0 512 512" style="enable-background:new 0 0 512 512;" xml:space="preserve">
                                <g>
                                    <g>
                                        <path d="M434.76,49.811c-37.808,0-69.336,27.313-75.944,63.24H10c-0.441,0-0.877,0.035-1.306,0.092
                                            c-0.047,0.006-0.094,0.01-0.141,0.016c-0.424,0.062-0.84,0.154-1.248,0.269c-0.056,0.016-0.112,0.03-0.169,0.047
                                            c-0.41,0.123-0.809,0.273-1.198,0.446c-0.032,0.014-0.066,0.022-0.097,0.036c-0.025,0.011-0.046,0.027-0.071,0.039
                                            c-0.383,0.179-0.752,0.382-1.108,0.607c-0.057,0.036-0.114,0.072-0.171,0.109c-0.343,0.227-0.671,0.474-0.984,0.741
                                            c-0.053,0.045-0.104,0.09-0.156,0.136c-0.306,0.272-0.596,0.563-0.868,0.872c-0.04,0.046-0.079,0.093-0.118,0.14
                                            c-0.269,0.318-0.521,0.652-0.75,1.004c-0.026,0.04-0.049,0.082-0.074,0.122c-0.229,0.365-0.441,0.743-0.624,1.14
                                            c-0.009,0.019-0.016,0.039-0.024,0.058c-0.094,0.208-0.184,0.418-0.264,0.634c-0.07,0.188-0.129,0.378-0.187,0.568
                                            c-0.012,0.038-0.026,0.075-0.037,0.113c-0.123,0.418-0.212,0.84-0.278,1.263c-0.008,0.052-0.019,0.104-0.026,0.157
                                            c-0.06,0.43-0.09,0.861-0.094,1.291c0,0.033-0.007,0.065-0.007,0.098v329.143c0,0.052,0.007,0.102,0.008,0.154
                                            c0.003,0.232,0.015,0.465,0.035,0.697c0.008,0.09,0.014,0.18,0.024,0.27c0.01,0.089,0.022,0.178,0.034,0.267
                                            c0.008,0.054,0.018,0.107,0.027,0.161c0.019,0.123,0.037,0.245,0.061,0.368c0.019,0.097,0.042,0.193,0.064,0.289
                                            c0.045,0.201,0.094,0.401,0.152,0.601c0.007,0.023,0.013,0.046,0.02,0.068c0.037,0.122,0.08,0.24,0.121,0.359
                                            c0.029,0.085,0.053,0.171,0.084,0.255c0.023,0.063,0.053,0.122,0.077,0.185c0.052,0.132,0.106,0.262,0.163,0.391
                                            c0.007,0.016,0.013,0.033,0.021,0.049c0.011,0.023,0.019,0.048,0.03,0.071c0.053,0.114,0.112,0.223,0.169,0.334
                                            c0.055,0.108,0.106,0.217,0.165,0.322c0.089,0.161,0.186,0.316,0.283,0.471c0.028,0.045,0.054,0.091,0.083,0.135
                                            c0.024,0.037,0.046,0.075,0.07,0.112c0.039,0.058,0.083,0.113,0.123,0.171c0.129,0.184,0.263,0.365,0.403,0.539
                                            c0.053,0.065,0.107,0.129,0.161,0.193c0.038,0.044,0.075,0.088,0.113,0.131c0.104,0.118,0.211,0.232,0.32,0.345
                                            c0.07,0.072,0.138,0.144,0.21,0.214c0.106,0.103,0.215,0.202,0.325,0.3c0.056,0.05,0.112,0.1,0.169,0.148
                                            c0.054,0.046,0.105,0.095,0.16,0.14c0.216,0.177,0.44,0.343,0.67,0.501c0.056,0.039,0.114,0.075,0.171,0.113
                                            c0.052,0.034,0.106,0.065,0.159,0.098c0.132,0.083,0.265,0.165,0.401,0.242c0.113,0.064,0.228,0.126,0.345,0.186
                                            c0.113,0.058,0.227,0.114,0.342,0.168c0.028,0.013,0.052,0.031,0.081,0.044c0.032,0.015,0.066,0.024,0.099,0.039
                                            c0.092,0.041,0.183,0.082,0.276,0.121c0.159,0.065,0.321,0.121,0.483,0.178c0.071,0.025,0.141,0.053,0.213,0.077
                                            c0.125,0.041,0.254,0.074,0.381,0.11c0.17,0.048,0.341,0.095,0.514,0.134c0.038,0.008,0.075,0.019,0.113,0.027
                                            c0.094,0.02,0.189,0.033,0.284,0.05c0.183,0.034,0.367,0.061,0.552,0.084c0.009,0.001,0.018,0.003,0.027,0.004
                                            c0.057,0.007,0.113,0.02,0.17,0.026c0.048,0.005,0.096,0.005,0.144,0.01c0.271,0.025,0.544,0.039,0.819,0.041
                                            c0.014,0,0.026,0.002,0.04,0.002c0.014,0,0.027,0.002,0.041,0.002h0.001h453.431c0.028,0,0.055-0.004,0.083-0.004
                                            c0.275-0.002,0.548-0.017,0.819-0.041c0.051-0.005,0.103-0.006,0.154-0.011c0.012-0.001,0.023-0.004,0.035-0.005
                                            c0.052-0.006,0.102-0.017,0.153-0.023c0.186-0.023,0.369-0.051,0.552-0.084c0.098-0.018,0.197-0.032,0.294-0.053
                                            c0.03-0.007,0.06-0.015,0.09-0.022c0.178-0.04,0.353-0.087,0.528-0.137c0.131-0.037,0.262-0.072,0.391-0.114
                                            c0.058-0.019,0.116-0.042,0.174-0.062c0.172-0.06,0.344-0.12,0.512-0.188c0.097-0.04,0.192-0.083,0.287-0.126
                                            c0.029-0.013,0.059-0.021,0.088-0.034c0.025-0.011,0.046-0.027,0.071-0.039c0.118-0.055,0.236-0.113,0.352-0.172
                                            c0.116-0.06,0.231-0.122,0.345-0.186c0.14-0.079,0.276-0.163,0.412-0.249c0.047-0.03,0.095-0.057,0.142-0.087
                                            c0.059-0.039,0.119-0.077,0.177-0.117c0.23-0.158,0.454-0.324,0.67-0.501c0.057-0.047,0.11-0.098,0.166-0.146
                                            c0.053-0.045,0.104-0.09,0.156-0.136c0.113-0.1,0.224-0.202,0.332-0.307c0.072-0.07,0.14-0.142,0.21-0.214
                                            c0.111-0.115,0.22-0.231,0.325-0.352c0.035-0.04,0.069-0.08,0.103-0.12c0.055-0.065,0.111-0.131,0.165-0.198
                                            c0.141-0.174,0.274-0.355,0.404-0.54c0.04-0.057,0.084-0.112,0.123-0.17c0.026-0.038,0.048-0.078,0.073-0.117
                                            c0.026-0.04,0.049-0.081,0.075-0.122c0.099-0.158,0.198-0.316,0.288-0.479c0.059-0.105,0.11-0.215,0.165-0.322
                                            c0.057-0.113,0.117-0.223,0.171-0.338c0.009-0.019,0.016-0.039,0.024-0.059c0.009-0.019,0.016-0.039,0.024-0.058
                                            c0.057-0.129,0.111-0.259,0.163-0.391c0.025-0.062,0.054-0.122,0.077-0.185c0.031-0.085,0.055-0.17,0.084-0.255
                                            c0.041-0.121,0.085-0.24,0.122-0.362c0.006-0.021,0.013-0.042,0.019-0.064c0.059-0.2,0.107-0.401,0.153-0.602
                                            c0.022-0.096,0.045-0.192,0.064-0.289c0.024-0.124,0.042-0.248,0.061-0.371c0.008-0.053,0.019-0.104,0.026-0.157
                                            c0.012-0.089,0.024-0.178,0.034-0.268c0.01-0.089,0.016-0.179,0.024-0.269c0.02-0.233,0.032-0.466,0.035-0.699
                                            c0.001-0.052,0.008-0.101,0.008-0.153v-0.001V193.863C496.467,180.471,512,155.525,512,127.002
                                            C512,84.439,477.351,49.811,434.76,49.811z M357.756,133.05v0.001c0.021,0.272,0.058,0.541,0.082,0.813
                                            c0.062,0.702,0.132,1.401,0.212,2.098c0.049,0.413,0.103,0.825,0.158,1.237c0.113,0.86,0.235,1.717,0.377,2.568
                                            c0.025,0.145,0.053,0.288,0.078,0.433c1.56,9.053,4.698,17.566,9.124,25.256c0.015,0.026,0.03,0.052,0.045,0.078
                                            c0.526,0.911,1.068,1.81,1.629,2.697c0.1,0.158,0.202,0.315,0.303,0.472c0.496,0.771,1.001,1.536,1.523,2.288
                                            c0.208,0.301,0.424,0.597,0.637,0.895c0.439,0.613,0.878,1.226,1.334,1.825c0.368,0.486,0.751,0.961,1.132,1.439
                                            c0.329,0.412,0.651,0.828,0.988,1.233c0.65,0.783,1.32,1.551,2.001,2.309c0.089,0.099,0.174,0.202,0.264,0.301
                                            c0.852,0.939,1.723,1.863,2.623,2.761l-143.55,124.145L82.495,172.525h209.882c5.522,0,10-4.478,10-10c0-5.522-4.478-10-10-10
                                            H59.369L36.85,133.05H357.756z M20,144.92l165.008,142.702L98.276,362.63L20,430.324V144.92z M36.851,442.193l66.856-57.819
                                            l96.588-83.531l29.88,25.84c1.878,1.624,4.209,2.436,6.541,2.436c2.332,0,4.663-0.813,6.541-2.436l29.88-25.84l117.801,101.876
                                            H176.614c-5.523,0-10,4.478-10,10c0,5.522,4.477,10,10,10h234.044c1.011,0,1.986-0.153,2.905-0.432l23.017,19.906H36.851z
                                             M453.432,430.324L288.424,287.622l108.082-93.472c8.185,4.687,17.094,7.794,26.381,9.226c0.113,0.018,0.228,0.033,0.341,0.05
                                            c1.156,0.173,2.318,0.324,3.485,0.444c0.074,0.008,0.147,0.018,0.22,0.025c1.168,0.118,2.342,0.204,3.52,0.269
                                            c0.249,0.014,0.497,0.025,0.746,0.036c1.182,0.054,2.367,0.09,3.558,0.09c0,0,0.001,0,0.002,0h0.001
                                            c1.221,0,2.435-0.037,3.646-0.093c0.175-0.008,0.35-0.014,0.525-0.024c1.21-0.064,2.414-0.156,3.614-0.276
                                            c0.081-0.008,0.161-0.017,0.242-0.026c3.601-0.368,7.154-0.981,10.645-1.85V430.324z M457.477,179.574
                                            c-0.202,0.087-0.401,0.18-0.604,0.265c-0.641,0.27-1.292,0.522-1.944,0.769c-0.265,0.1-0.529,0.202-0.795,0.298
                                            c-0.643,0.232-1.292,0.45-1.945,0.66c-0.274,0.088-0.547,0.174-0.822,0.258c-0.656,0.199-1.316,0.388-1.982,0.564
                                            c-0.278,0.074-0.558,0.142-0.837,0.212c-0.663,0.165-1.33,0.322-2.003,0.464c-0.3,0.063-0.601,0.117-0.902,0.176
                                            c-0.653,0.126-1.308,0.249-1.969,0.353c-0.36,0.056-0.722,0.1-1.083,0.149c-0.608,0.084-1.215,0.169-1.829,0.233
                                            c-0.499,0.052-1.001,0.084-1.502,0.123c-0.488,0.038-0.973,0.086-1.465,0.112c-1.002,0.052-2.009,0.081-3.021,0.082
                                            c-0.005,0-0.01,0-0.016,0c-0.001,0-0.003,0-0.004,0c-0.895,0-1.783-0.027-2.667-0.068c-0.252-0.012-0.502-0.029-0.753-0.044
                                            c-0.67-0.04-1.338-0.09-2.001-0.153c-0.234-0.022-0.469-0.043-0.703-0.068c-0.858-0.092-1.713-0.197-2.56-0.326
                                            c-0.007-0.001-0.014-0.002-0.021-0.003c-0.93-0.143-1.854-0.309-2.769-0.496c-0.052-0.01-0.103-0.023-0.155-0.034
                                            c-0.844-0.175-1.681-0.369-2.51-0.581c-0.097-0.025-0.193-0.049-0.29-0.075c-3.568-0.93-7.003-2.196-10.266-3.764
                                            c-0.058-0.028-0.116-0.056-0.174-0.084c-2.441-1.183-4.786-2.534-7.02-4.039c-0.09-0.061-0.178-0.123-0.268-0.184
                                            c-0.561-0.382-1.112-0.778-1.659-1.18c-0.466-0.343-0.922-0.697-1.376-1.052c-0.368-0.288-0.741-0.57-1.102-0.866
                                            c-0.747-0.615-1.479-1.245-2.191-1.894c-0.284-0.258-0.555-0.531-0.834-0.795c-0.489-0.464-0.976-0.93-1.448-1.41
                                            c-0.273-0.277-0.538-0.562-0.805-0.845c-0.488-0.517-0.968-1.04-1.435-1.574c-0.207-0.236-0.413-0.472-0.616-0.711
                                            c-0.599-0.708-1.185-1.426-1.748-2.161c-0.054-0.071-0.111-0.14-0.165-0.211c-5.415-7.13-9.115-15.461-10.749-24.3
                                            c-0.017-0.094-0.034-0.187-0.051-0.281c-0.169-0.939-0.308-1.884-0.43-2.833c-0.026-0.207-0.055-0.413-0.079-0.621
                                            c-0.101-0.861-0.175-1.728-0.236-2.596c-0.017-0.246-0.042-0.489-0.056-0.736c-0.062-1.081-0.099-2.167-0.099-3.256
                                            c0-0.845,0.028-1.684,0.064-2.52c0.014-0.291,0.029-0.589,0.047-0.898c0-0.001,0-0.003,0-0.005
                                            c1.778-29.974,26.716-53.818,57.128-53.818C466.322,69.811,492,95.467,492,127.002C492,150.515,477.768,170.757,457.477,179.574z"></path>
                                    </g>
                                </g>
                                <g>
                                    <g>
                                        <path d="M439.994,93.843c-1.308,0-2.42,0.28-3.287,0.822l-11.415,6.918c-2.057,1.235-3.236,3.375-3.236,5.872
                                            c0,3.301,2.194,6.864,5.739,6.864c0.72,0,1.824-0.164,2.954-0.918l0.218-0.135v41.341c0,3.328,3.392,5.652,8.248,5.652
                                            c4.856,0,8.249-2.324,8.249-5.652V99.582C447.464,96.037,443.587,93.843,439.994,93.843z"></path>
                                    </g>
                                </g>
                                <g>
                                    <g>
                                        <path d="M343.18,160.572c-0.13-0.64-0.32-1.27-0.57-1.869c-0.25-0.61-0.56-1.19-0.92-1.73c-0.359-0.55-0.779-1.059-1.239-1.52
                                            c-0.46-0.46-0.971-0.881-1.521-1.24c-0.54-0.36-1.13-0.67-1.729-0.92c-0.601-0.25-1.23-0.44-1.87-0.57
                                            c-3.25-0.66-6.7,0.41-9.021,2.73c-0.46,0.46-0.88,0.97-1.25,1.52c-0.359,0.54-0.67,1.12-0.92,1.73
                                            c-0.25,0.6-0.439,1.23-0.57,1.869c-0.13,0.641-0.189,1.301-0.189,1.95c0,0.66,0.06,1.311,0.189,1.96
                                            c0.13,0.629,0.32,1.26,0.57,1.87c0.25,0.601,0.561,1.181,0.92,1.72c0.37,0.551,0.79,1.061,1.25,1.52
                                            c0.46,0.46,0.971,0.88,1.521,1.25c0.54,0.36,1.12,0.67,1.72,0.92c0.61,0.25,1.24,0.44,1.87,0.57c0.649,0.13,1.31,0.189,1.96,0.189
                                            c0.65,0,1.31-0.059,1.95-0.189s1.27-0.32,1.87-0.57c0.6-0.25,1.189-0.56,1.729-0.92c0.55-0.37,1.061-0.79,1.521-1.25
                                            c0.46-0.46,0.88-0.97,1.239-1.52c0.36-0.539,0.67-1.119,0.92-1.72c0.25-0.609,0.44-1.24,0.57-1.87c0.13-0.649,0.2-1.3,0.2-1.96
                                            C343.38,161.873,343.31,161.213,343.18,160.572z"></path>
                                    </g>
                                </g>
                                <g>
                                    <g>
                                        <path d="M145.42,410.762c-0.13-0.64-0.32-1.26-0.57-1.87c-0.25-0.6-0.56-1.18-0.92-1.72c-0.37-0.55-0.78-1.06-1.25-1.53
                                            c-0.46-0.46-0.97-0.87-1.51-1.24c-0.55-0.359-1.13-0.67-1.73-0.92c-0.6-0.25-1.229-0.439-1.87-0.569
                                            c-1.289-0.261-2.619-0.261-3.909,0c-0.641,0.13-1.271,0.319-1.87,0.569c-0.6,0.25-1.181,0.561-1.73,0.92
                                            c-0.54,0.37-1.06,0.78-1.52,1.24c-0.46,0.47-0.88,0.98-1.24,1.53c-0.36,0.54-0.67,1.12-0.92,1.72c-0.25,0.61-0.44,1.24-0.57,1.87
                                            c-0.13,0.65-0.2,1.31-0.2,1.96c0,0.65,0.07,1.311,0.2,1.95c0.13,0.64,0.32,1.27,0.57,1.87c0.25,0.6,0.56,1.189,0.92,1.729
                                            c0.36,0.54,0.78,1.061,1.24,1.521c0.46,0.46,0.98,0.88,1.52,1.24c0.55,0.359,1.13,0.67,1.73,0.92c0.6,0.25,1.23,0.439,1.87,0.569
                                            c0.649,0.13,1.3,0.19,1.949,0.19c0.66,0,1.311-0.061,1.96-0.19c0.641-0.13,1.27-0.319,1.87-0.569c0.6-0.25,1.181-0.561,1.73-0.92
                                            c0.54-0.36,1.05-0.78,1.51-1.24c0.47-0.46,0.88-0.98,1.25-1.521c0.36-0.54,0.67-1.13,0.92-1.729c0.25-0.6,0.44-1.23,0.57-1.87
                                            s0.189-1.3,0.189-1.95C145.609,412.062,145.549,411.412,145.42,410.762z"></path>
                                    </g>
                                </g>
                                <g>
                                </g>
                                <g>
                                </g>
                                <g>
                                </g>
                                <g>
                                </g>
                                <g>
                                </g>
                                <g>
                                </g>
                                <g>
                                </g>
                                <g>
                                </g>
                                <g>
                                </g>
                                <g>
                                </g>
                                <g>
                                </g>
                                <g>
                                </g>
                                <g>
                                </g>
                                <g>
                                </g>
                                <g>
                                </g>
                                </svg>